/* XPM */
static char * wmSMPmon_master_xpm[] = {
"118 79 72 1",
" 	c #00000000FFFF",
".	c #202020202020",
"X	c #60601B1B0000",
"o	c #000049494141",
"O	c #2020B6B6AEAE",
"+	c #5F5F1D1D0000",
"@	c #00007D7D7171",
"#	c #5D5D1E1E0000",
"$	c #5B5B1F1F0000",
"%	c #000000000000",
"&	c #595920200000",
"*	c #C7C7C7C7C7C7",
"=	c #575721210000",
"-	c #555522220000",
";	c #535323230000",
":	c #515124240000",
">	c #4F4F25250000",
",	c #4D4D26260000",
"<	c #4C4C27270000",
"1	c #4A4A28280000",
"2	c #484829290000",
"3	c #46462A2A0000",
"4	c #44442B2B0000",
"5	c #42422D2D0000",
"6	c #40402E2E0000",
"7	c #3E3E2F2F0000",
"8	c #3C3C30300000",
"9	c #3B3B31310000",
"0	c #393932320000",
"q	c #373733330000",
"w	c #353534340000",
"e	c #333335350000",
"r	c #313136360000",
"t	c #2F2F37370000",
"y	c #2D2D38380000",
"u	c #2B2B39390000",
"i	c #29293A3A0000",
"p	c #C7C72F2F0000",
"a	c #C2C234340000",
"s	c #BDBD39390000",
"d	c #B8B83E3E0000",
"f	c #B3B342420000",
"g	c #AFAF47470000",
"h	c #AAAA4C4C0000",
"j	c #27273B3B0000",
"k	c #A5A551510000",
"l	c #A0A055550000",
"z	c #9C9C5A5A0000",
"x	c #97975F5F0000",
"c	c #929264640000",
"v	c #8D8D68680000",
"b	c #89896D6D0000",
"n	c #848472720000",
"m	c #7F7F77770000",
"M	c #7A7A7B7B0000",
"N	c #757580800000",
"B	c #717185850000",
"V	c #6C6C89890000",
"C	c #67678E8E0000",
"Z	c #626293930000",
"A	c #5E5E98980000",
"S	c #59599C9C0000",
"D	c #5454A1A10000",
"F	c #4F4FA6A60000",
"G	c #4B4BABAB0000",
"H	c #4646AFAF0000",
"J	c #4141B4B40000",
"K	c #3737BEBE0000",
"L	c #3C3CB9B90000",
"Y	c #FFFFFFFF0000",
"Q	c #FFFF00000000",
"P	c #FFFF66660000",
"                                                                ............................................XXXXXXXXoO",
"                                                                ............................................++++++++@O",
"                                                                ............................................########OO",
"                                                                ............................................$$$$$$$$OO",
"    %%%%%%%%% %%%%%%%%%%%%%%%%%%%%%%%%%%%%%%%%%%%%%%%%%%%%%%    ............................................&&&&&&&&OO",
"    XXXXXXXX* %............................................*    ............................................========OO",
"    ++++++++* %............................................*    ............................................--------OO",
"    ########* %............................................*    ............................................;;;;;;;;OO",
"    $$$$$$$$* %............................................*    ............................................::::::::OO",
"    &&&&&&&&* %............................................*    ............................................>>>>>>>>OO",
"    ========* %............................................*    ............................................,,,,,,,,OO",
"    --------* %............................................*    ............................................<<<<<<<<OO",
"    ;;;;;;;;* %............................................*    ............................................11111111OO",
"    ::::::::* %............................................*    ............................................22222222O@",
"    >>>>>>>>* %............................................*    ............................................33333333Oo",
"    ,,,,,,,,* %............................................*    @@@@@@@@@@@@@@@@@@@@@@@@@@@@@@@@@@@@@@@@@@@@44444444O ",
"    <<<<<<<<* %............................................*    ............................................55555555O ",
"    11111111* %............................................*    ............................................66666666O ",
"    22222222* %............................................*    ............................................77777777O ",
"    33333333* %............................................*    ............................................88888888O ",
"    44444444* %............................................*    ............................................99999999O ",
"    55555555* %............................................*    ............................................00000000O ",
"    66666666* %............................................*    ............................................qqqqqqqqO ",
"    77777777* %............................................*    ............................................wwwwwwwwO ",
"    88888888* %............................................*    ............................................eeeeeeeeO ",
"    99999999* %............................................*    ............................................rrrrrrrrO ",
"    00000000* %............................................*    ............................................ttttttttO ",
"    qqqqqqqq* %............................................*    ............................................yyyyyyyyO ",
"    wwwwwwww* %............................................*    ............................................uuuuuuuuO ",
"    eeeeeeee* %............................................*    ............................................iiiiiiiiO ",
"    rrrrrrrr* %............................................*    ............................................iiiiiiiiO ",
"    tttttttt* %............................................*                                                          ",
"    yyyyyyyy* %............................................*    ............................................pppppppp  ",
"    uuuuuuuu* %............................................*    ............................................aaaaaaaa  ",
"    uuuuuuuu* %............................................*    ............................................ssssssss  ",
"    iiiiiiii* %............................................*    ............................................dddddddd  ",
"    ********* **********************************************    ............................................ffffffff  ",
"                                                                ............................................gggggggg  ",
"    %%%%%%%%%%%%%%%%%%%%%%  %%%%%%%%%%%%%%%%%%%%%%%%%%%%%%%%    ............................................hhhhhhhh  ",
"    %.OoooO.@OOO@.OoooO..*  %jiuytrewq0987654321<,>:;-=&$#+*    ............................................kkkkkkkk  ",
"    %.OO.OO.O...o.OO.OO..*  %jiuytrewq0987654321<,>:;-=&$#+*    ............................................llllllll  ",
"    %.O.O.O.O...o.O.O.O..*  %jiuytrewq0987654321<,>:;-=&$#+*    ............................................zzzzzzzz  ",
"    %.@ooo@.@OOO@.@ooo@..*  %jiuytrewq0987654321<,>:;-=&$#+*    ............................................xxxxxxxx  ",
"    %.O...O.O...o.O...O..*  %jiuytrewq0987654321<,>:;-=&$#+*    ............................................cccccccc  ",
"    %.O...O.O...o.O...O..*  %jiuytrewq0987654321<,>:;-=&$#+*    ............................................vvvvvvvv  ",
"    %.@ooo@.@OOO@.@ooo@..*  %jiuytrewq0987654321<,>:;-=&$#+*    ............................................bbbbbbbb  ",
"    %....................*  %jiuytrewq0987654321<,>:;-=&$#+*    ............................................nnnnnnnn  ",
"    **********************  ********************************    ............................................mmmmmmmm  ",
"                                                                ............................................MMMMMMMM  ",
"    %%%%%%%%%%%%%%%%%%%%%%  %%%%%%%%%%%%%%%%%%%%%%%%%%%%%%%%    ............................................NNNNNNNN  ",
"    %.@OOO@.@ooo@.@OOO@..*  %jiuytrewq0987654321<,>:;-=&$#+*    ............................................BBBBBBBB  ",
"    %.O...o.O...O.O...O..*  %jiuytrewq0987654321<,>:;-=&$#+*    ............................................VVVVVVVV  ",
"    %.O...o.O...O.O...O..*  %jiuytrewq0987654321<,>:;-=&$#+*    ............................................CCCCCCCC  ",
"    %.@OOO@.@ooo@.@OOO@..*  %jiuytrewq0987654321<,>:;-=&$#+*    ............................................ZZZZZZZZ  ",
"    %.o...O.O.O.O.O...o..*  %jiuytrewq0987654321<,>:;-=&$#+*    ............................................AAAAAAAA  ",
"    %.o...O.OO.OO.O...o..*  %jiuytrewq0987654321<,>:;-=&$#+*    ............................................SSSSSSSS  ",
"    %.@OOO@.OoooO.@ooo...*  %jiuytrewq0987654321<,>:;-=&$#+*    ............................................DDDDDDDD  ",
"    %....................*  %jiuytrewq0987654321<,>:;-=&$#+*    ............................................FFFFFFFF  ",
"    **********************  ********************************    ............................................GGGGGGGG  ",
"                                                                ............................................HHHHHHHH  ",
"                                                                ............................................JJJJJJJJ  ",
"                                                                ............................................KKKKKKKK  ",
"                                                                ............................................KKKKKKKK  ",
"KLJHGFDSAZCVBNMmnbvcxzlkhgfdsajiuytrewq0987654321<,>:;-=&$#+sYYYs.sooos.sYYYs..*  %jiuOooo@q@OOO@5Oooo@,@OOOO&$#+* Q  ",
"KLJHGFDSAZCVBNMmnbvcxzlkhgfdsajiuytrewq0987654321<,>:;-=&$#+Y...o.Y...Y.Y...Y..*  %jiuOOreOqO987O5OO21O,O:;-o&$#+* Q  ",
"KLJHGFDSAZCVBNMmnbvcxzlkhgfdsajiuytrewq0987654321<,>:;-=&$#+Y...o.Y...Y.Y...Y..*  %jiuOtOeOqO987O5O3O1O,O:;-o&$#+* Q  ",
"KLJHGFDSAZCVBNMmnbvcxzlkhgfdsajiuytrewq0987654321<,>:;-=&$#+sYYYs.sooos.sYYYs..*  %jiuOooOOqOoooO5OooOO,OOOOo&$#+* Q  ",
"KLJHGFDSAZCVBNMmnbvcxzlkhgfdsajiuytrewq0987654321<,>:;-=&$#+o...Y.Y.Y.Y.Y...o..*  %jiuOtreOqO987O5O321O,O:;-o&$#+* Q  ",
"KLJHGFDSAZCVBNMmnbvcxzlkhgfdsajiuytrewq0987654321<,>:;-=&$#+o...Y.YY.YY.Y...o..*  %jiuOtreOqO987O5O321O,O:;-o&$#+* Q  ",
"KLJHGFDSAZCVBNMmnbvcxzlkhgfdsajiuytrewq0987654321<,>:;-=&$#+sYYYs.YoooY.sooo...*  %jiu@oooOq@OOO@5@oooO,@OOOO&$#+* Q  ",
"KLJHGFDSAZCVBNMmnbvcxzlkhgfdsajiuytrewq0987654321<,>:;-=&$#+...................*  %jiuytrewq0987654321<,>:;-=&$#+* Q  ",
".@OOO@.@ooo@.@OOO@..*+aQQQa.aoooa.aQQQa..*K+lPPPl.loool.lPPPl..*                                                      ",
".O...o.O...O.O...O..*+Q...o.Q...Q.Q...Q..*K+P...o.P...P.P...P..*                                                      ",
".O...o.O...O.O...O..*+Q...o.Q...Q.Q...Q..*K+P...o.P...P.P...P..*                                                      ",
".@OOO@.@ooo@.@OOO@..*+aQQQa.aoooa.aQQQa..*K+lPPPl.loool.lPPPl..*                                                      ",
".o...O.O.O.O.O...o..*+o...Q.Q.Q.Q.Q...o..*K+o...P.P.P.P.P...o..*                                                      ",
".o...O.OO.OO.O...o..*+o...Q.QQ.QQ.Q...o..*K+o...P.PP.PP.P...o..*                                                      ",
".@OOO@.OoooO.@ooo...*+aQQQa.QoooQ.aooo...*K+lPPPl.PoooP.looo...*                                                      ",
"....................*+...................*K+...................*                                                      "};
